# xmcd
# 
# Track frame offsets:
#     150
#     32086
#     82305
#     122018
#     143130
# 
# Disc length: 2481
# 
# Revision: 1
# Processed by: cddbd v1.5.2PL0 Copyright (c) Steve Scherf et al.
# Submitted via: fre:ac v1.0.31
# 
DISCID=4109af05
DTITLE=Art Blakey - VERY BEST OF JAZZ GIANTS 06
DYEAR=2015
DGENRE=Jazz
TTITLE0=A Night In Tunisia
TTITLE1=Free For All
TTITLE2=Dat Dere
TTITLE3=Summertime
TTITLE4=Moanin'
EXTD=
EXTT0=
EXTT1=
EXTT2=
EXTT3=
EXTT4=
PLAYORDER=
